<?xml version="1.0" encoding="utf-8"?>
<!-- Generator: Adobe Illustrator 22.0.0, SVG Export Plug-In . SVG Version: 6.00 Build 0)  -->
<svg version="1.1" id="Capa_1" xmlns="http://www.w3.org/2000/svg" xmlns:xlink="http://www.w3.org/1999/xlink" x="0px" y="0px"
	 viewBox="0 0 373 526" style="enable-background:new 0 0 373 526;" xml:space="preserve">
<style type="text/css">
	.st0{fill:#FFFFFF;}
</style>
<g>
	<path class="st0" d="M358.3,7H20c-5.1,0-9.1,4.1-9.1,9.1v201.1h118.2l-31.7-31.7C88.8,177,84,165.5,84,153.3s4.8-23.7,13.4-32.3
		c8.6-8.6,20.1-13.4,32.3-13.4s23.7,4.8,32.3,13.4l109.7,109.7c2.1,2.1,4,4.4,5.7,7c0.6,0.9,1.1,1.8,1.5,2.7l0.9,1.6
		c0.6,1.2,1.3,2.3,1.8,3.6c0.5,1.2,0.9,2.5,1.2,3.8l0.5,1.6c0.3,1,0.6,2.1,0.9,3.2c1.2,5.9,1.2,11.9,0,17.9
		c-0.2,1.1-0.5,2.1-0.9,3.2l-0.5,1.6c-0.3,1.3-0.7,2.5-1.2,3.8c-0.5,1.3-1.2,2.5-1.9,3.7l-0.8,1.5c-0.5,0.9-1,1.8-1.5,2.7
		c-1.7,2.6-3.6,4.9-5.8,7L162,405c-8.6,8.6-20.1,13.4-32.3,13.4S106,413.7,97.4,405c-8.6-8.6-13.4-20.1-13.4-32.3
		s4.8-23.7,13.4-32.3l31.7-31.7H10.9v201.1c0,5.1,4.1,9.1,9.1,9.1h338.3c5.1,0,9.1-4.1,9.1-9.1V16.1C367.4,11.1,363.3,7,358.3,7z"/>
</g>
</svg>
